<svg width="280" height="49" viewBox="0 0 280 49" fill="none" xmlns="http://www.w3.org/2000/svg">
<path d="M0.810547 49V0.123047H8.84277L26.7871 40.8994L44.3896 0.123047H52.0801V49H46.4404V8.90723L29.0771 49H24.0869L6.4502 8.90723V49H0.810547ZM70.0244 13.1113V49H63.7012V13.1113H70.0244ZM70.0244 0.123047V6.10449H63.7012V0.123047H70.0244ZM80.9961 49V13.1113H85.2686L86.3965 17.6914C90.0651 14.638 94.0983 13.1113 98.4961 13.1113C107.451 13.1113 111.929 17.5661 111.929 26.4756V49H105.605V26.373C105.605 21.041 102.951 18.375 97.6416 18.375C94.0186 18.375 90.5778 19.8903 87.3193 22.9209V49H80.9961ZM146.313 20.4258C143.761 19.1953 140.845 18.5801 137.563 18.5801C130.34 18.5801 126.729 22.4196 126.729 30.0986C126.729 39.1904 130.34 43.7363 137.563 43.7363C140.845 43.7363 143.761 43.292 146.313 42.4033V20.4258ZM152.637 46.8467C148.285 48.2822 142.918 49 136.538 49C125.851 49 120.508 42.7793 120.508 30.3379C120.508 18.8535 126.182 13.1113 137.529 13.1113C140.628 13.1113 143.556 13.681 146.313 14.8203V0.123047H152.637V46.8467ZM163.574 49V0.123047H184.424C193.721 0.123047 198.369 3.91699 198.369 11.5049C198.369 17.0648 195.339 21.041 189.277 23.4336C195.749 24.6413 198.984 28.3441 198.984 34.542C198.984 44.1807 193.892 49 183.706 49H163.574ZM183.33 43.873C189.163 43.873 192.08 40.9108 192.08 34.9863C192.08 29.2214 188.172 26.3389 180.356 26.3389H177.622V22.2031C186.965 20.9499 191.636 17.5775 191.636 12.0859C191.636 7.52865 189.038 5.25 183.843 5.25H169.897V43.873H183.33ZM212.964 30.9189C212.964 39.555 216.553 43.873 223.73 43.873C230.908 43.873 234.497 39.555 234.497 30.9189C234.497 22.4652 230.908 18.2383 223.73 18.2383C216.553 18.2383 212.964 22.4652 212.964 30.9189ZM206.641 31.0557C206.641 19.0928 212.337 13.1113 223.73 13.1113C235.124 13.1113 240.82 19.0928 240.82 31.0557C240.82 42.9958 235.124 48.9658 223.73 48.9658C212.383 48.9658 206.686 42.9958 206.641 31.0557ZM258.525 31.0557L245.093 13.1113H252.441L262.183 26.1338L271.924 13.1113H279.272L265.874 31.0557L279.272 49H271.924L262.183 35.9775L252.441 49H245.093L258.525 31.0557Z" fill="#B8DBD9"/>
</svg>
